<svg width="32" height="32" viewBox="0 0 32 32" fill="none" xmlns="http://www.w3.org/2000/svg">
<path opacity="0.4" d="M21.434 2.66638H25.9486C27.8183 2.66638 29.3333 4.19418 29.3333 6.07967V10.6324C29.3333 12.5179 27.8183 14.0457 25.9486 14.0457H21.434C19.5643 14.0457 18.0493 12.5179 18.0493 10.6324V6.07967C18.0493 4.19418 19.5643 2.66638 21.434 2.66638Z" fill="#716FE7"/>
<path fill-rule="evenodd" clip-rule="evenodd" d="M6.05145 2.66638H10.5661C12.4358 2.66638 13.9508 4.19418 13.9508 6.07967V10.6324C13.9508 12.5179 12.4358 14.0457 10.5661 14.0457H6.05145C4.18176 14.0457 2.66675 12.5179 2.66675 10.6324V6.07967C2.66675 4.19418 4.18176 2.66638 6.05145 2.66638ZM6.05145 17.9537H10.5661C12.4358 17.9537 13.9508 19.4815 13.9508 21.367V25.9197C13.9508 27.8039 12.4358 29.333 10.5661 29.333H6.05145C4.18176 29.333 2.66675 27.8039 2.66675 25.9197V21.367C2.66675 19.4815 4.18176 17.9537 6.05145 17.9537ZM25.9488 17.9537H21.4341C19.5644 17.9537 18.0494 19.4815 18.0494 21.367V25.9197C18.0494 27.8039 19.5644 29.333 21.4341 29.333H25.9488C27.8184 29.333 29.3335 27.8039 29.3335 25.9197V21.367C29.3335 19.4815 27.8184 17.9537 25.9488 17.9537Z" fill="#716FE7"/>
</svg>
