<svg width="32" height="32" viewBox="0 0 32 32" fill="none" xmlns="http://www.w3.org/2000/svg">
<path opacity="0.4" d="M22.2192 29.3193H9.77992C7.85122 29.4392 5.95716 28.7705 4.53195 27.4679C3.22928 26.0414 2.56063 24.1473 2.68051 22.22V9.77948C2.56063 7.85214 3.22795 5.95809 4.53062 4.53156C5.95716 3.22891 7.85122 2.56026 9.77992 2.68014H22.2192C24.1452 2.56026 26.038 3.22758 27.4632 4.53023C28.7645 5.95809 29.4345 7.8508 29.3199 9.77948V22.22C29.4385 24.1473 28.7712 26.0414 27.4685 27.4679C26.042 28.7705 24.1479 29.4392 22.2192 29.3193Z" fill="#716FE7"/>
<path d="M22.7395 13.8631L14.0024 22.6436C13.5481 23.0859 12.9509 23.333 12.3277 23.333H9.27691C9.10814 23.333 8.95236 23.268 8.83552 23.1509C8.71868 23.0339 8.66675 22.8778 8.66675 22.7087L8.74464 19.6257C8.75762 19.0143 9.00429 18.442 9.4327 18.0127L15.6252 11.8078C15.7291 11.7038 15.9108 11.7038 16.0147 11.8078L18.1866 13.9711C18.3294 14.1129 18.5371 14.2052 18.7578 14.2052C19.2382 14.2052 19.6147 13.815 19.6147 13.3467C19.6147 13.1126 19.5238 12.9044 19.381 12.7483C19.342 12.6963 17.274 10.6371 17.274 10.6371C17.1441 10.507 17.1441 10.2859 17.274 10.1558L18.1438 9.27126C18.9487 8.46476 20.2469 8.46476 21.0518 9.27126L22.7395 10.9623C23.5314 11.7558 23.5314 13.0566 22.7395 13.8631Z" fill="#716FE7"/>
</svg>
