<svg width="20" height="20" viewBox="0 0 20 20" fill="none" xmlns="http://www.w3.org/2000/svg">
<g clip-path="url(#clip0_0_607)">
<path d="M6.2918 18.1202C13.8371 18.1202 17.9652 11.8675 17.9652 6.44676C17.9652 6.27098 17.9613 6.09129 17.9535 5.91551C18.7566 5.33476 19.4496 4.61542 20 3.79129C19.2521 4.12404 18.458 4.34136 17.6449 4.43582C18.5011 3.92263 19.1421 3.11644 19.4492 2.16668C18.6438 2.64401 17.763 2.98072 16.8445 3.16238C16.2257 2.50484 15.4075 2.06947 14.5164 1.92358C13.6253 1.7777 12.711 1.92942 11.9148 2.35529C11.1186 2.78116 10.4848 3.45746 10.1115 4.27963C9.73825 5.10181 9.64619 6.02405 9.84961 6.90379C8.21874 6.82195 6.62328 6.3983 5.16665 5.66029C3.71002 4.92229 2.42474 3.88641 1.39414 2.61981C0.870333 3.52291 0.710047 4.59158 0.945859 5.60862C1.18167 6.62566 1.79589 7.51475 2.66367 8.0952C2.01219 8.07451 1.37498 7.89911 0.804688 7.58348V7.63426C0.804104 8.582 1.13175 9.5007 1.73192 10.2342C2.3321 10.9677 3.16777 11.4707 4.09687 11.6577C3.49338 11.8228 2.85999 11.8469 2.2457 11.728C2.50788 12.5431 3.01798 13.256 3.70481 13.7672C4.39164 14.2784 5.22093 14.5624 6.07695 14.5796C4.62369 15.7211 2.82848 16.3403 0.980469 16.3374C0.652739 16.3369 0.325333 16.3168 0 16.2772C1.87738 17.4817 4.06128 18.1214 6.2918 18.1202Z" fill="#1D2130"/>
</g>
<defs>
<clipPath id="clip0_0_607">
<rect width="20" height="20" fill="white" transform="translate(0 -0.00488281)"/>
</clipPath>
</defs>
</svg>
