<svg width="112" height="199" viewBox="0 0 112 199" fill="none" xmlns="http://www.w3.org/2000/svg">
<path d="M18.0479 162.05V166.558C17.8708 166.771 17.5973 167.003 17.2275 167.253C16.8577 167.498 16.3812 167.709 15.7979 167.886C15.2145 168.063 14.5088 168.152 13.6807 168.152C12.9463 168.152 12.277 168.032 11.6729 167.792C11.0687 167.547 10.5479 167.191 10.1104 166.722C9.67806 166.253 9.34473 165.68 9.11035 165.003C8.87598 164.321 8.75879 163.542 8.75879 162.667V161.956C8.75879 161.081 8.87077 160.303 9.09473 159.62C9.32389 158.938 9.64941 158.363 10.0713 157.894C10.4932 157.425 10.9958 157.068 11.5791 156.823C12.1624 156.579 12.8109 156.456 13.5244 156.456C14.514 156.456 15.3265 156.618 15.9619 156.941C16.5973 157.258 17.0817 157.701 17.415 158.269C17.7536 158.831 17.9619 159.477 18.04 160.206H15.7666C15.7093 159.821 15.5999 159.485 15.4385 159.198C15.277 158.912 15.0452 158.688 14.7432 158.527C14.4463 158.365 14.0609 158.284 13.5869 158.284C13.1963 158.284 12.8473 158.365 12.54 158.527C12.238 158.683 11.9827 158.915 11.7744 159.222C11.5661 159.529 11.4072 159.909 11.2979 160.363C11.1885 160.816 11.1338 161.342 11.1338 161.941V162.667C11.1338 163.261 11.1911 163.787 11.3057 164.245C11.4202 164.698 11.5895 165.081 11.8135 165.394C12.0426 165.701 12.3239 165.933 12.6572 166.089C12.9906 166.245 13.3786 166.323 13.8213 166.323C14.1911 166.323 14.4984 166.292 14.7432 166.23C14.9932 166.167 15.1937 166.092 15.3447 166.003C15.501 165.909 15.6208 165.821 15.7041 165.738V163.722H13.5635V162.05H18.0479ZM22.1729 155.995V167.995H19.915V155.995H22.1729ZM23.6729 163.855V163.691C23.6729 163.071 23.7614 162.501 23.9385 161.98C24.1156 161.454 24.3734 160.998 24.7119 160.613C25.0505 160.227 25.4671 159.928 25.9619 159.714C26.4567 159.495 27.0244 159.386 27.665 159.386C28.3057 159.386 28.876 159.495 29.376 159.714C29.876 159.928 30.2952 160.227 30.6338 160.613C30.9775 160.998 31.238 161.454 31.415 161.98C31.5921 162.501 31.6807 163.071 31.6807 163.691V163.855C31.6807 164.469 31.5921 165.04 31.415 165.566C31.238 166.087 30.9775 166.542 30.6338 166.933C30.2952 167.318 29.8786 167.618 29.3838 167.831C28.889 168.045 28.3213 168.152 27.6807 168.152C27.04 168.152 26.4697 168.045 25.9697 167.831C25.4749 167.618 25.0557 167.318 24.7119 166.933C24.3734 166.542 24.1156 166.087 23.9385 165.566C23.7614 165.04 23.6729 164.469 23.6729 163.855ZM25.9229 163.691V163.855C25.9229 164.209 25.9541 164.54 26.0166 164.847C26.0791 165.154 26.1781 165.425 26.3135 165.659C26.4541 165.889 26.6364 166.068 26.8604 166.198C27.0843 166.329 27.3577 166.394 27.6807 166.394C27.9932 166.394 28.2614 166.329 28.4854 166.198C28.7093 166.068 28.889 165.889 29.0244 165.659C29.1598 165.425 29.2588 165.154 29.3213 164.847C29.389 164.54 29.4229 164.209 29.4229 163.855V163.691C29.4229 163.347 29.389 163.024 29.3213 162.722C29.2588 162.415 29.1572 162.144 29.0166 161.909C28.8812 161.67 28.7015 161.482 28.4775 161.347C28.2536 161.212 27.9827 161.144 27.665 161.144C27.3473 161.144 27.0765 161.212 26.8525 161.347C26.6338 161.482 26.4541 161.67 26.3135 161.909C26.1781 162.144 26.0791 162.415 26.0166 162.722C25.9541 163.024 25.9229 163.347 25.9229 163.691ZM33.0635 155.995H35.3135V166.058L35.0869 167.995H33.0635V155.995ZM40.665 163.683V163.847C40.665 164.477 40.5973 165.055 40.4619 165.581C40.3317 166.107 40.1286 166.563 39.8525 166.948C39.5765 167.329 39.2327 167.626 38.8213 167.839C38.415 168.047 37.9359 168.152 37.3838 168.152C36.8682 168.152 36.4202 168.047 36.04 167.839C35.665 167.631 35.3499 167.337 35.0947 166.956C34.8395 166.576 34.6338 166.131 34.4775 165.62C34.3213 165.11 34.2041 164.553 34.126 163.948V163.589C34.2041 162.985 34.3213 162.428 34.4775 161.917C34.6338 161.407 34.8395 160.962 35.0947 160.581C35.3499 160.201 35.665 159.907 36.04 159.698C36.415 159.49 36.8577 159.386 37.3682 159.386C37.9255 159.386 38.4098 159.493 38.8213 159.706C39.238 159.915 39.5817 160.212 39.8525 160.597C40.1286 160.977 40.3317 161.43 40.4619 161.956C40.5973 162.477 40.665 163.053 40.665 163.683ZM38.415 163.847V163.683C38.415 163.339 38.389 163.016 38.3369 162.714C38.29 162.407 38.2067 162.139 38.0869 161.909C37.9671 161.675 37.8031 161.49 37.5947 161.355C37.3916 161.219 37.1286 161.152 36.8057 161.152C36.4984 161.152 36.238 161.204 36.0244 161.308C35.8109 161.412 35.6338 161.558 35.4932 161.745C35.3577 161.933 35.2562 162.157 35.1885 162.417C35.1208 162.672 35.0791 162.954 35.0635 163.261V164.284C35.0791 164.696 35.1468 165.06 35.2666 165.378C35.3916 165.691 35.5791 165.938 35.8291 166.12C36.0843 166.297 36.415 166.386 36.8213 166.386C37.139 166.386 37.402 166.323 37.6104 166.198C37.8187 166.073 37.9801 165.896 38.0947 165.667C38.2145 165.438 38.2979 165.17 38.3447 164.863C38.3916 164.55 38.415 164.212 38.415 163.847ZM46.626 166.089V162.323C46.626 162.053 46.5817 161.821 46.4932 161.628C46.4046 161.43 46.2666 161.277 46.0791 161.167C45.8968 161.058 45.6598 161.003 45.3682 161.003C45.1182 161.003 44.902 161.047 44.7197 161.136C44.5374 161.219 44.3968 161.342 44.2979 161.503C44.1989 161.659 44.1494 161.844 44.1494 162.058H41.8994C41.8994 161.698 41.9827 161.357 42.1494 161.034C42.3161 160.712 42.5583 160.428 42.876 160.183C43.1937 159.933 43.5713 159.738 44.0088 159.597C44.4515 159.456 44.9463 159.386 45.4932 159.386C46.1494 159.386 46.7327 159.495 47.2432 159.714C47.7536 159.933 48.1546 160.261 48.4463 160.698C48.7432 161.136 48.8916 161.683 48.8916 162.339V165.956C48.8916 166.42 48.9202 166.8 48.9775 167.097C49.0348 167.389 49.1182 167.644 49.2275 167.863V167.995H46.9541C46.8447 167.766 46.7614 167.48 46.7041 167.136C46.652 166.787 46.626 166.438 46.626 166.089ZM46.9229 162.847L46.9385 164.12H45.6807C45.3838 164.12 45.126 164.154 44.9072 164.222C44.6885 164.29 44.5088 164.386 44.3682 164.511C44.2275 164.631 44.1234 164.771 44.0557 164.933C43.9932 165.094 43.9619 165.271 43.9619 165.464C43.9619 165.657 44.0062 165.831 44.0947 165.988C44.1833 166.139 44.3109 166.258 44.4775 166.347C44.6442 166.43 44.8395 166.472 45.0635 166.472C45.402 166.472 45.6963 166.404 45.9463 166.269C46.1963 166.133 46.389 165.967 46.5244 165.769C46.665 165.571 46.738 165.383 46.7432 165.206L47.3369 166.159C47.2536 166.373 47.139 166.594 46.9932 166.823C46.8525 167.053 46.6729 167.269 46.4541 167.472C46.2354 167.67 45.9723 167.834 45.665 167.964C45.3577 168.089 44.9932 168.152 44.5713 168.152C44.0348 168.152 43.5479 168.045 43.1104 167.831C42.6781 167.613 42.3343 167.313 42.0791 166.933C41.8291 166.547 41.7041 166.11 41.7041 165.62C41.7041 165.178 41.7874 164.784 41.9541 164.441C42.1208 164.097 42.3656 163.808 42.6885 163.573C43.0166 163.334 43.4255 163.154 43.915 163.034C44.4046 162.909 44.9723 162.847 45.6182 162.847H46.9229ZM53.001 155.995V167.995H50.7432V155.995H53.001ZM63.6104 158.566L60.5166 167.995H58.0244L62.251 156.62H63.8369L63.6104 158.566ZM66.1807 167.995L63.0791 158.566L62.8291 156.62H64.4307L68.6807 167.995H66.1807ZM66.04 163.761V165.597H60.0322V163.761H66.04ZM71.7432 165.808L73.501 159.542H74.9307L74.4697 162.003L72.7119 167.995H71.5166L71.7432 165.808ZM70.8525 159.542L72.1104 165.8L72.2275 167.995H70.8213L68.6807 159.542H70.8525ZM76.54 165.698L77.7666 159.542H79.9463L77.8057 167.995H76.4072L76.54 165.698ZM75.126 159.542L76.876 165.761L77.1182 167.995H75.915L74.1572 162.011L73.7119 159.542H75.126ZM85.6416 166.089V162.323C85.6416 162.053 85.5973 161.821 85.5088 161.628C85.4202 161.43 85.2822 161.277 85.0947 161.167C84.9124 161.058 84.6755 161.003 84.3838 161.003C84.1338 161.003 83.9176 161.047 83.7354 161.136C83.5531 161.219 83.4124 161.342 83.3135 161.503C83.2145 161.659 83.165 161.844 83.165 162.058H80.915C80.915 161.698 80.9984 161.357 81.165 161.034C81.3317 160.712 81.5739 160.428 81.8916 160.183C82.2093 159.933 82.5869 159.738 83.0244 159.597C83.4671 159.456 83.9619 159.386 84.5088 159.386C85.165 159.386 85.7484 159.495 86.2588 159.714C86.7692 159.933 87.1702 160.261 87.4619 160.698C87.7588 161.136 87.9072 161.683 87.9072 162.339V165.956C87.9072 166.42 87.9359 166.8 87.9932 167.097C88.0505 167.389 88.1338 167.644 88.2432 167.863V167.995H85.9697C85.8604 167.766 85.777 167.48 85.7197 167.136C85.6676 166.787 85.6416 166.438 85.6416 166.089ZM85.9385 162.847L85.9541 164.12H84.6963C84.3994 164.12 84.1416 164.154 83.9229 164.222C83.7041 164.29 83.5244 164.386 83.3838 164.511C83.2432 164.631 83.139 164.771 83.0713 164.933C83.0088 165.094 82.9775 165.271 82.9775 165.464C82.9775 165.657 83.0218 165.831 83.1104 165.988C83.1989 166.139 83.3265 166.258 83.4932 166.347C83.6598 166.43 83.8551 166.472 84.0791 166.472C84.4176 166.472 84.7119 166.404 84.9619 166.269C85.2119 166.133 85.4046 165.967 85.54 165.769C85.6807 165.571 85.7536 165.383 85.7588 165.206L86.3525 166.159C86.2692 166.373 86.1546 166.594 86.0088 166.823C85.8682 167.053 85.6885 167.269 85.4697 167.472C85.251 167.67 84.988 167.834 84.6807 167.964C84.3734 168.089 84.0088 168.152 83.5869 168.152C83.0505 168.152 82.5635 168.045 82.126 167.831C81.6937 167.613 81.3499 167.313 81.0947 166.933C80.8447 166.547 80.7197 166.11 80.7197 165.62C80.7197 165.178 80.8031 164.784 80.9697 164.441C81.1364 164.097 81.3812 163.808 81.7041 163.573C82.0322 163.334 82.4411 163.154 82.9307 163.034C83.4202 162.909 83.988 162.847 84.6338 162.847H85.9385ZM91.8916 161.386V167.995H89.6416V159.542H91.7588L91.8916 161.386ZM94.4385 159.488L94.3994 161.573C94.29 161.558 94.1572 161.545 94.001 161.534C93.8499 161.519 93.7119 161.511 93.5869 161.511C93.2692 161.511 92.9932 161.553 92.7588 161.636C92.5296 161.714 92.3369 161.831 92.1807 161.988C92.0296 162.144 91.915 162.334 91.8369 162.558C91.764 162.782 91.7223 163.037 91.7119 163.323L91.2588 163.183C91.2588 162.636 91.3135 162.133 91.4229 161.675C91.5322 161.212 91.6911 160.808 91.8994 160.464C92.113 160.12 92.3734 159.855 92.6807 159.667C92.988 159.48 93.3395 159.386 93.7354 159.386C93.8604 159.386 93.988 159.396 94.1182 159.417C94.2484 159.433 94.3551 159.456 94.4385 159.488ZM100.337 166.152V155.995H102.603V167.995H100.563L100.337 166.152ZM94.9932 163.87V163.706C94.9932 163.06 95.0661 162.475 95.2119 161.948C95.3577 161.417 95.5713 160.962 95.8525 160.581C96.1338 160.201 96.4801 159.907 96.8916 159.698C97.3031 159.49 97.7718 159.386 98.2979 159.386C98.7926 159.386 99.2249 159.49 99.5947 159.698C99.9697 159.907 100.287 160.204 100.548 160.589C100.813 160.969 101.027 161.42 101.188 161.941C101.35 162.456 101.467 163.021 101.54 163.636V163.995C101.467 164.584 101.35 165.131 101.188 165.636C101.027 166.141 100.813 166.584 100.548 166.964C100.287 167.339 99.9697 167.631 99.5947 167.839C99.2197 168.047 98.7822 168.152 98.2822 168.152C97.7562 168.152 97.2874 168.045 96.876 167.831C96.4697 167.618 96.126 167.318 95.8447 166.933C95.5687 166.547 95.3577 166.094 95.2119 165.573C95.0661 165.053 94.9932 164.485 94.9932 163.87ZM97.2432 163.706V163.87C97.2432 164.219 97.2692 164.545 97.3213 164.847C97.3786 165.149 97.4697 165.417 97.5947 165.652C97.7249 165.881 97.8916 166.06 98.0947 166.191C98.3031 166.316 98.5557 166.378 98.8525 166.378C99.238 166.378 99.5557 166.292 99.8057 166.12C100.056 165.943 100.246 165.701 100.376 165.394C100.511 165.087 100.59 164.732 100.61 164.331V163.308C100.595 162.98 100.548 162.685 100.47 162.425C100.397 162.159 100.287 161.933 100.142 161.745C100.001 161.558 99.8239 161.412 99.6104 161.308C99.402 161.204 99.1546 161.152 98.8682 161.152C98.5765 161.152 98.3265 161.219 98.1182 161.355C97.9098 161.485 97.7406 161.665 97.6104 161.894C97.4854 162.123 97.3916 162.394 97.3291 162.706C97.2718 163.014 97.2432 163.347 97.2432 163.706Z" fill="#1D2130"/>
<path opacity="0.6" d="M19.7939 185.464V193.995H18.3232L14.4971 187.884V193.995H13.0264V185.464H14.4971L18.335 191.587V185.464H19.7939ZM27.1299 192.829V193.995H22.6006V192.829H27.1299ZM23.0166 185.464V193.995H21.5459V185.464H23.0166ZM26.5381 189.027V190.175H22.6006V189.027H26.5381ZM27.1006 185.464V186.636H22.6006V185.464H27.1006ZM30.4697 192.079L32.1689 185.464H33.0596L32.96 187.169L31.1436 193.995H30.2178L30.4697 192.079ZM29.1982 185.464L30.5752 192.027L30.6982 193.995H29.7139L27.7393 185.464H29.1982ZM34.9873 192.009L36.3467 185.464H37.8115L35.8369 193.995H34.8525L34.9873 192.009ZM33.4053 185.464L35.0869 192.097L35.333 193.995H34.4072L32.6201 187.169L32.5264 185.464H33.4053ZM42.7041 185.464L44.6846 189.536L46.665 185.464H48.2939L45.4229 190.855V193.995H43.9404V190.855L41.0693 185.464H42.7041ZM55.8525 189.495V189.964C55.8525 190.609 55.7686 191.187 55.6006 191.698C55.4326 192.21 55.1924 192.646 54.8799 193.005C54.5713 193.365 54.2002 193.64 53.7666 193.831C53.333 194.019 52.8525 194.113 52.3252 194.113C51.8018 194.113 51.3232 194.019 50.8896 193.831C50.46 193.64 50.0869 193.365 49.7705 193.005C49.4541 192.646 49.208 192.21 49.0322 191.698C48.8604 191.187 48.7744 190.609 48.7744 189.964V189.495C48.7744 188.851 48.8604 188.275 49.0322 187.767C49.2041 187.255 49.4463 186.82 49.7588 186.46C50.0752 186.097 50.4482 185.822 50.8779 185.634C51.3115 185.443 51.79 185.347 52.3135 185.347C52.8408 185.347 53.3213 185.443 53.7549 185.634C54.1885 185.822 54.5615 186.097 54.874 186.46C55.1865 186.82 55.4268 187.255 55.5947 187.767C55.7666 188.275 55.8525 188.851 55.8525 189.495ZM54.3818 189.964V189.484C54.3818 189.007 54.335 188.587 54.2412 188.224C54.1514 187.857 54.0166 187.55 53.8369 187.304C53.6611 187.054 53.4443 186.866 53.1865 186.741C52.9287 186.613 52.6377 186.548 52.3135 186.548C51.9893 186.548 51.7002 186.613 51.4463 186.741C51.1924 186.866 50.9756 187.054 50.7959 187.304C50.6201 187.55 50.4854 187.857 50.3916 188.224C50.2979 188.587 50.251 189.007 50.251 189.484V189.964C50.251 190.441 50.2979 190.863 50.3916 191.23C50.4854 191.597 50.6221 191.907 50.8018 192.161C50.9854 192.411 51.2041 192.601 51.458 192.73C51.7119 192.855 52.001 192.917 52.3252 192.917C52.6533 192.917 52.9443 192.855 53.1982 192.73C53.4521 192.601 53.667 192.411 53.8428 192.161C54.0186 191.907 54.1514 191.597 54.2412 191.23C54.335 190.863 54.3818 190.441 54.3818 189.964ZM57.3232 185.464H60.3408C60.9893 185.464 61.542 185.562 61.999 185.757C62.4561 185.952 62.8057 186.241 63.0479 186.624C63.2939 187.003 63.417 187.472 63.417 188.031C63.417 188.456 63.3389 188.831 63.1826 189.156C63.0264 189.48 62.8057 189.753 62.5205 189.976C62.2354 190.195 61.8955 190.365 61.501 190.486L61.0557 190.702H58.3428L58.3311 189.536H60.3643C60.7158 189.536 61.0088 189.474 61.2432 189.349C61.4775 189.224 61.6533 189.054 61.7705 188.839C61.8916 188.62 61.9521 188.374 61.9521 188.101C61.9521 187.804 61.8936 187.546 61.7764 187.327C61.6631 187.105 61.4873 186.935 61.249 186.818C61.0107 186.697 60.708 186.636 60.3408 186.636H58.7939V193.995H57.3232V185.464ZM62.1924 193.995L60.1885 190.163L61.7295 190.157L63.7627 193.919V193.995H62.1924ZM66.3525 185.464V193.995H64.8818V185.464H66.3525ZM71.4795 185.464L68.0225 189.572L66.0537 191.657L65.7959 190.198L67.2021 188.464L69.6865 185.464H71.4795ZM69.8975 193.995L67.0908 189.952L68.1045 188.95L71.6436 193.995H69.8975ZM73.6475 192.636L73.6416 193.644C73.6416 194.042 73.542 194.452 73.3428 194.874C73.1436 195.296 72.8799 195.644 72.5518 195.917L71.7959 195.478C71.9053 195.302 72.0049 195.124 72.0947 194.945C72.1846 194.765 72.2568 194.573 72.3115 194.37C72.3662 194.167 72.3936 193.943 72.3936 193.697V192.636H73.6475ZM82.9229 185.464H84.3877V191.165C84.3877 191.814 84.2471 192.357 83.9658 192.794C83.6846 193.232 83.3018 193.562 82.8174 193.784C82.3369 194.003 81.7998 194.113 81.2061 194.113C80.5928 194.113 80.0459 194.003 79.5654 193.784C79.085 193.562 78.7061 193.232 78.4287 192.794C78.1553 192.357 78.0186 191.814 78.0186 191.165V185.464H79.4834V191.165C79.4834 191.575 79.5537 191.913 79.6943 192.179C79.835 192.441 80.0342 192.634 80.292 192.759C80.5498 192.884 80.8545 192.947 81.2061 192.947C81.5576 192.947 81.8604 192.884 82.1143 192.759C82.3721 192.634 82.5713 192.441 82.7119 192.179C82.8525 191.913 82.9229 191.575 82.9229 191.165V185.464ZM90.4756 191.798C90.4756 191.622 90.4482 191.466 90.3936 191.329C90.3428 191.193 90.251 191.068 90.1182 190.954C89.9854 190.841 89.7979 190.732 89.5557 190.626C89.3174 190.517 89.0127 190.406 88.6416 190.292C88.2354 190.167 87.8604 190.029 87.5166 189.876C87.1768 189.72 86.8799 189.54 86.626 189.337C86.3721 189.13 86.1748 188.894 86.0342 188.628C85.8936 188.359 85.8232 188.048 85.8232 187.697C85.8232 187.349 85.8955 187.032 86.04 186.747C86.1885 186.462 86.3975 186.216 86.667 186.009C86.9404 185.798 87.2627 185.636 87.6338 185.523C88.0049 185.406 88.415 185.347 88.8643 185.347C89.4971 185.347 90.042 185.464 90.499 185.698C90.96 185.933 91.3135 186.247 91.5596 186.642C91.8096 187.036 91.9346 187.472 91.9346 187.948H90.4756C90.4756 187.667 90.415 187.419 90.2939 187.204C90.1768 186.986 89.9971 186.814 89.7549 186.689C89.5166 186.564 89.2139 186.501 88.8467 186.501C88.499 186.501 88.21 186.554 87.9795 186.659C87.749 186.765 87.5771 186.907 87.4639 187.087C87.3506 187.267 87.2939 187.47 87.2939 187.697C87.2939 187.857 87.3311 188.003 87.4053 188.136C87.4795 188.265 87.5928 188.386 87.7451 188.499C87.8975 188.609 88.0889 188.712 88.3193 188.81C88.5498 188.907 88.8213 189.001 89.1338 189.091C89.6064 189.232 90.0186 189.388 90.3701 189.56C90.7217 189.728 91.0146 189.919 91.249 190.134C91.4834 190.349 91.6592 190.593 91.7764 190.866C91.8936 191.136 91.9521 191.443 91.9521 191.786C91.9521 192.146 91.8799 192.47 91.7354 192.759C91.5908 193.044 91.3838 193.288 91.1143 193.491C90.8486 193.691 90.5283 193.845 90.1533 193.954C89.7822 194.06 89.3682 194.113 88.9111 194.113C88.501 194.113 88.0967 194.058 87.6982 193.948C87.3037 193.839 86.9443 193.673 86.6201 193.45C86.2959 193.224 86.0381 192.943 85.8467 192.607C85.6553 192.267 85.5596 191.87 85.5596 191.417H87.0303C87.0303 191.695 87.0771 191.931 87.1709 192.126C87.2686 192.322 87.4033 192.482 87.5752 192.607C87.7471 192.728 87.9463 192.818 88.1729 192.876C88.4033 192.935 88.6494 192.964 88.9111 192.964C89.2549 192.964 89.542 192.915 89.7725 192.818C90.0068 192.72 90.1826 192.583 90.2998 192.407C90.417 192.232 90.4756 192.029 90.4756 191.798ZM96.5752 186.601L94.0264 193.995H92.4854L95.6963 185.464H96.6807L96.5752 186.601ZM98.708 193.995L96.1533 186.601L96.042 185.464H97.0322L100.255 193.995H98.708ZM98.585 190.831V191.997H93.9443V190.831H98.585Z" fill="#1D2130"/>
<path d="M41.0439 134.995H29.3486V132.675L34.8682 126.792C35.626 125.964 36.1846 125.241 36.5439 124.624C36.9111 124.007 37.0947 123.421 37.0947 122.866C37.0947 122.109 36.9033 121.515 36.5205 121.085C36.1377 120.648 35.5908 120.429 34.8799 120.429C34.1143 120.429 33.5088 120.695 33.0635 121.226C32.626 121.749 32.4072 122.441 32.4072 123.3H29.0088C29.0088 122.261 29.2549 121.312 29.7471 120.452C30.2471 119.593 30.9502 118.921 31.8564 118.437C32.7627 117.945 33.79 117.698 34.9385 117.698C36.6963 117.698 38.0596 118.12 39.0283 118.964C40.0049 119.808 40.4932 120.999 40.4932 122.538C40.4932 123.382 40.2744 124.241 39.8369 125.116C39.3994 125.991 38.6494 127.011 37.5869 128.175L33.708 132.265H41.0439V134.995ZM54.6143 127.941C54.6143 130.3 54.126 132.105 53.1494 133.355C52.1729 134.605 50.7432 135.23 48.8604 135.23C47.001 135.23 45.5791 134.616 44.5947 133.39C43.6104 132.163 43.1064 130.406 43.083 128.116V124.976C43.083 122.593 43.5752 120.784 44.5596 119.55C45.5518 118.316 46.9775 117.698 48.8369 117.698C50.6963 117.698 52.1182 118.312 53.1025 119.538C54.0869 120.757 54.5908 122.511 54.6143 124.8V127.941ZM51.2275 124.495C51.2275 123.081 51.0322 122.054 50.6416 121.413C50.2588 120.765 49.6572 120.441 48.8369 120.441C48.04 120.441 47.4502 120.749 47.0674 121.366C46.6924 121.976 46.4932 122.933 46.4697 124.238V128.386C46.4697 129.777 46.6572 130.812 47.0322 131.491C47.415 132.163 48.0244 132.499 48.8604 132.499C49.6885 132.499 50.2861 132.175 50.6533 131.527C51.0205 130.878 51.2119 129.886 51.2275 128.55V124.495ZM65.1377 134.995H61.751V121.941L57.708 123.195V120.441L64.7744 117.909H65.1377V134.995ZM81.8135 122.468C81.8135 123.296 81.6064 124.031 81.1924 124.671C80.7783 125.312 80.208 125.823 79.4814 126.206C80.3096 126.605 80.9658 127.156 81.4502 127.859C81.9346 128.554 82.1768 129.374 82.1768 130.32C82.1768 131.835 81.6611 133.034 80.6299 133.917C79.5986 134.792 78.1963 135.23 76.4229 135.23C74.6494 135.23 73.2432 134.788 72.2041 133.906C71.165 133.023 70.6455 131.827 70.6455 130.32C70.6455 129.374 70.8877 128.55 71.3721 127.847C71.8564 127.144 72.5088 126.597 73.3291 126.206C72.6025 125.823 72.0322 125.312 71.6182 124.671C71.2119 124.031 71.0088 123.296 71.0088 122.468C71.0088 121.015 71.4932 119.859 72.4619 118.999C73.4307 118.132 74.7471 117.698 76.4111 117.698C78.0674 117.698 79.3799 118.128 80.3486 118.988C81.3252 119.839 81.8135 120.999 81.8135 122.468ZM78.7783 130.073C78.7783 129.331 78.5635 128.738 78.1338 128.292C77.7041 127.847 77.126 127.624 76.3994 127.624C75.6807 127.624 75.1064 127.847 74.6768 128.292C74.2471 128.73 74.0322 129.323 74.0322 130.073C74.0322 130.8 74.2432 131.386 74.665 131.831C75.0869 132.277 75.6729 132.499 76.4229 132.499C77.1572 132.499 77.7314 132.284 78.1455 131.855C78.5674 131.425 78.7783 130.831 78.7783 130.073ZM78.4268 122.632C78.4268 121.968 78.251 121.437 77.8994 121.038C77.5479 120.632 77.0518 120.429 76.4111 120.429C75.7783 120.429 75.2861 120.624 74.9346 121.015C74.583 121.406 74.4072 121.945 74.4072 122.632C74.4072 123.312 74.583 123.859 74.9346 124.273C75.2861 124.687 75.7822 124.894 76.4229 124.894C77.0635 124.894 77.5557 124.687 77.8994 124.273C78.251 123.859 78.4268 123.312 78.4268 122.632Z" fill="#1D2130"/>
<path d="M111.153 48.1143C111.083 48.0565 110.981 48.0382 110.902 48.0648C110.805 48.0946 110.717 48.1204 110.633 48.1449L110.592 48.1568C110.385 48.2172 110.207 48.2688 110.03 48.3397C107.239 49.4476 105.042 51.3456 103.313 54.1419C102.885 54.8328 102.555 55.551 102.291 56.2672C102.723 53.8581 102.823 52.9195 102.9 50.2238C102.904 50.1107 102.904 49.9956 102.904 49.8814C102.904 49.5696 102.904 49.275 102.972 49.0062C103.053 48.6877 103.218 48.37 103.377 48.0626C103.422 47.9756 103.467 47.8886 103.504 47.8122C103.516 47.7972 103.558 47.7719 103.574 47.7694C104.372 47.6477 105.078 47.3091 105.732 46.7347C106.392 46.1529 106.934 45.4409 107.344 44.6176C108.817 41.6671 109.554 38.4058 109.536 34.9255C109.534 34.5898 109.495 34.263 109.451 33.9075C109.431 33.7482 109.411 33.5853 109.395 33.4166C109.385 33.3241 109.328 33.2418 109.246 33.2018C109.164 33.1623 109.066 33.1651 108.983 33.2149C108.933 33.246 108.891 33.2713 108.852 33.2938C108.777 33.3383 108.72 33.373 108.666 33.4119C107.41 34.3116 106.302 35.4317 105.372 36.7402C103.855 38.8789 102.973 41.2972 102.735 43.9575C102.712 43.661 102.688 43.3644 102.664 43.0679L102.656 42.9603C102.562 41.7977 102.466 40.5954 102.388 39.4131C102.368 39.1137 102.31 38.8224 102.255 38.5406C102.147 37.9989 102.046 37.4873 102.208 36.9511C102.245 36.8299 102.276 36.7079 102.308 36.5862C102.384 36.2846 102.755 35.8202 103.325 35.3124L103.346 35.2932C103.556 35.1154 104.635 34.1293 105.247 32.1787C105.869 30.1971 105.822 28.1265 105.787 26.6145L105.786 26.5742C105.741 24.4958 105.516 22.9297 105.058 21.4952C104.998 21.3118 104.928 21.1309 104.853 20.9408C104.815 20.8418 104.775 20.7395 104.734 20.6325C104.701 20.5419 104.621 20.4761 104.527 20.4605L104.481 20.4563C104.4 20.4563 104.324 20.4927 104.273 20.5556L103.827 21.0978C101.692 23.6998 100.642 26.7515 100.708 30.1684C100.719 30.7702 100.765 31.3875 100.844 32.0248C100.302 30.1534 99.665 28.3319 98.9411 26.5795C98.9261 26.5411 98.9163 26.4936 98.9152 26.4533L98.9102 26.2137C98.9027 25.868 98.8949 25.5103 98.9097 25.1584C98.9119 25.1 98.9497 24.9953 99.0285 24.8921C99.1403 24.7446 99.2644 24.6003 99.3929 24.4502C99.6119 24.1956 99.8381 23.9327 100.017 23.6326C100.594 22.667 100.865 21.5264 100.87 20.0425C100.878 18.2957 100.608 16.4574 100.02 14.257C99.6992 13.0566 99.2146 11.4971 98.312 10.0833C98.2508 9.98825 98.1824 9.89875 98.1095 9.80398C98.0767 9.76201 98.0422 9.71726 98.0071 9.66918C97.9559 9.60053 97.8852 9.56051 97.7712 9.56051C97.6802 9.56718 97.599 9.61888 97.5536 9.6992C96.4207 11.7417 95.8565 13.9238 95.8297 16.3702C95.8069 18.4099 96.1258 20.1651 96.5256 21.5522C95.5081 19.6954 94.3774 17.9013 93.1519 16.1995L93.1238 16.1609C93.0959 16.1239 93.0843 16.1058 93.0862 16.1186C93.0091 15.568 92.9557 15.1275 92.9187 14.744C92.9196 14.7381 92.9268 14.7059 92.9841 14.6103C93.0651 14.4724 93.1538 14.3373 93.2481 14.1945C93.4373 13.9071 93.6326 13.6097 93.7578 13.2768C94.1357 12.2718 94.2205 11.1319 94.0166 9.79342C93.5689 6.83092 92.2616 4.16332 90.0208 1.63774C89.7901 1.37843 89.5353 1.14913 89.2657 0.906774L89.1911 0.839236C89.0857 0.743905 88.9774 0.646351 88.8681 0.543238C88.7985 0.47709 88.6989 0.452354 88.6024 0.480703C88.5111 0.509608 88.4407 0.585205 88.419 0.679147L88.3701 0.893712C88.3367 1.03601 88.3108 1.1483 88.2916 1.26114C87.99 3.05937 88.012 4.98545 88.3592 7.14999C88.7037 9.29675 89.39 11.1483 90.4431 12.7567C88.8639 10.8979 87.3279 9.33705 85.7225 7.95378C85.7153 7.94433 85.7047 7.9157 85.7039 7.90847C85.8294 6.8287 85.5628 5.81147 84.8884 4.79868C84.0028 3.46765 82.7723 2.4532 81.2309 1.78393C80.3086 1.38426 79.3529 1.03046 78.4173 0.683872C77.969 0.517668 77.5208 0.35202 77.0593 0.17442C76.5955 -0.00984963 76.3971 -0.0426459 76.2894 0.0568543C76.1509 0.185815 76.1843 0.295878 76.2446 0.49599L76.2641 0.561303C76.8297 2.46459 77.5804 3.96988 78.5594 5.16305C80.3567 7.35566 82.4587 8.46962 84.9822 8.56801C85.0707 8.57329 85.1408 8.59775 85.1694 8.61998C85.5247 8.88569 85.7862 9.09831 86.0174 9.30898C86.7486 9.97658 87.4686 10.6878 88.1731 11.4368C87.1253 10.7865 85.8447 10.493 84.4024 10.5658C83.613 10.6055 82.8296 10.7212 82.072 10.8329L82.043 10.8373C81.8191 10.8701 81.5962 10.9026 81.3739 10.9341C80.887 10.9999 80.3962 11.0861 79.9628 11.1617C79.7872 11.1931 79.3679 11.2884 79.2714 11.4916C79.238 11.5611 79.2408 11.6372 79.2786 11.7064C79.312 11.7667 79.3487 11.8234 79.3888 11.8751C80.64 13.4969 82.0672 14.565 83.7522 15.14C85.8065 15.8449 87.6934 15.7868 89.3889 14.9577C89.6482 14.8151 89.9609 14.7429 90.3182 14.7429C90.5878 14.7429 90.79 14.7854 90.8571 14.8007C90.9575 14.8173 91.0939 14.8735 91.1217 14.9096C92.1761 16.2946 93.1769 17.7737 94.1115 19.3276C93.3219 18.5605 92.2922 18.0433 90.8894 17.7065C89.6599 17.4138 88.4029 17.351 87.1876 17.2898L86.7806 17.2693C86.3994 17.2498 86.0183 17.2256 85.6257 17.2009L84.9674 17.1603C84.8823 17.1603 84.8013 17.2015 84.7518 17.2698C84.697 17.3435 84.6839 17.4391 84.7162 17.525C84.7426 17.5967 84.7908 17.7231 84.8155 17.7654C86.0973 19.9071 87.6025 21.3885 89.4165 22.2946C91.1898 23.1795 92.7921 23.4135 94.4083 23.0275C94.5953 22.9825 94.812 22.9586 95.036 22.9586C95.7235 22.9586 96.2028 23.1681 96.3036 23.3621C97.1928 25.1945 97.9862 27.0987 98.6707 29.0409C97.9529 28.0522 96.949 27.2493 95.6781 26.6487C94.4156 26.0534 93.1009 25.5092 91.8075 24.9736C91.2516 24.744 90.6935 24.5136 90.1379 24.2779C90.0553 24.2418 89.9576 24.2493 89.8805 24.3001C89.8049 24.3505 89.7598 24.4344 89.7598 24.5247C89.7598 24.6982 91.6044 29.8124 94.2834 31.8277C95.3762 32.6498 96.7223 33.4956 98.4197 33.5353C98.9277 33.5456 99.453 33.6173 99.8498 34.0678C99.9104 34.1395 99.9908 34.1954 100.078 34.2252C100.214 34.2696 100.251 34.3524 100.318 34.6348C100.868 36.9406 101.268 39.3172 101.515 41.7305C101.44 41.4856 101.354 41.2382 101.254 40.9878C100.655 39.4689 99.6456 38.1398 98.0786 36.8049C97.2709 36.114 96.4251 35.445 95.6072 34.7977L95.5682 34.7671C95.1957 34.4722 94.824 34.1785 94.4534 33.8811C94.3769 33.8196 94.3023 33.7563 94.2158 33.6823L93.9846 33.4845C93.9036 33.4161 93.7832 33.4019 93.6886 33.4492C93.5915 33.4984 93.5333 33.6001 93.5408 33.7087C93.5522 33.8719 93.5614 34.0261 93.57 34.1743L93.5745 34.2435C93.5928 34.5484 93.6101 34.836 93.641 35.1201C93.9309 37.8858 94.7541 40.1949 96.1578 42.179C97.0267 43.4056 98.2731 44.9047 100.217 45.6137C100.69 45.7872 101.033 46.0498 101.4 46.5212C101.747 46.9626 101.812 47.3658 101.804 47.8733C101.771 49.9993 101.619 52.1082 101.352 54.1735C101.289 53.5988 101.157 53.0071 100.953 52.3923C100.532 51.1193 99.8762 49.8817 98.9472 48.6088C98.1454 47.5065 97.311 46.4003 96.5042 45.33L96.4505 45.2585C96.1305 44.8347 95.8108 44.4103 95.4995 43.9951C95.4411 43.9097 95.3568 43.8792 95.3081 43.8622C95.2391 43.8286 95.1567 43.8252 95.0836 43.8564C95.0118 43.8869 94.9567 43.9473 94.9325 44.0212L94.923 44.0501C94.9097 44.089 94.8991 44.1235 94.8935 44.1579C94.3371 47.4726 94.6785 50.4423 95.9369 53.2377C96.5515 54.6046 97.3758 56.1521 98.8293 57.2655C99.4928 57.7739 100.017 58.4871 100.304 59.2733C100.365 59.4426 100.363 59.516 100.356 59.5443C99.741 62.0896 98.9375 64.5446 97.9606 66.8681C98.2122 65.6436 98.1949 64.3573 97.9078 63.0246C97.5002 61.1358 96.7996 59.3053 96.1747 57.7378L95.9875 57.2683C95.6945 56.5337 95.3996 55.7933 95.095 55.026C95.0563 54.9279 94.9631 54.8609 94.8387 54.8548C94.7408 54.8548 94.6506 54.9106 94.6039 55.0012L94.5057 55.1858C94.4626 55.2667 94.4222 55.342 94.3877 55.4198C93.1307 58.2531 92.7062 61.1575 93.1265 64.0524C93.427 66.1225 93.9362 67.6047 94.7775 68.8587C95.2129 69.5069 95.6266 70.2289 95.7018 71.1169C95.7196 71.327 95.7112 71.4718 95.6175 71.6367C94.5563 73.493 93.3666 75.2448 92.0637 76.8724C92.0687 76.8635 92.0735 76.8546 92.0785 76.8457C93.0158 75.1345 93.0442 73.2842 92.9485 71.6997C92.8659 70.3415 92.7101 68.9852 92.5601 67.6739L92.5515 67.598C92.4911 67.0727 92.431 66.5477 92.3762 66.0216C92.3445 65.7233 92.3091 65.4251 92.2727 65.1225L92.2246 64.7128C92.214 64.6222 92.1586 64.5438 92.079 64.5043C91.931 64.4271 91.6915 64.5463 91.4327 64.852C89.6546 66.9529 88.5512 69.327 88.1528 71.9088C87.7396 74.5855 87.9636 76.8763 88.8383 78.9118C88.8617 78.966 88.8611 79.0767 88.8609 79.1136L88.8138 80.2848C88.8069 80.369 88.7624 80.4641 88.7256 80.4994C86.95 82.2076 84.9952 83.6926 82.8975 84.9285C83.8904 84.0319 84.6043 82.8621 85.067 81.3796C85.5798 79.7365 85.843 78.0263 86.0981 76.3682L86.1204 76.2206C86.2108 75.6381 86.3051 75.0566 86.4014 74.4624L86.5102 73.7906C86.5257 73.6928 86.4871 73.595 86.4111 73.5363C86.3357 73.4763 86.2267 73.4618 86.1398 73.4991L86.045 73.5383C85.9437 73.5797 85.8555 73.6167 85.7723 73.6592C81.8066 75.6378 79.196 80.2526 79.5649 84.6317C79.6228 85.3176 79.5599 85.9619 79.3724 86.6C79.3549 86.6581 79.2987 86.7212 79.2759 86.7318C77.3923 87.5253 75.6014 88.1042 73.7993 88.5017C73.7067 88.5231 73.6332 88.5892 73.6032 88.6784C73.5729 88.7682 73.5912 88.8657 73.653 88.9391C73.8489 89.1709 74.0194 89.4202 74.1596 89.6812C74.2172 89.7879 74.3544 89.8427 74.4571 89.816C75.9252 89.4814 77.355 89.0481 78.708 88.5272C78.8173 88.4833 78.9008 88.4625 78.979 88.4753C79.28 88.5153 79.598 88.577 79.9511 88.6645C80.024 88.6823 80.0844 88.7159 80.0855 88.7129C80.8567 90.2487 82.1822 91.2271 84.1389 91.7032C84.5646 91.8052 85.0036 91.8805 85.4437 91.9266C85.9045 91.9753 86.4183 92 86.9706 92C87.7357 92 88.2813 91.9528 88.288 91.9522C89.984 91.7626 91.4325 91.3813 92.7153 90.7863C93.2417 90.5425 93.8416 90.2143 94.3026 89.6281C94.3908 89.5158 94.376 89.3538 94.2689 89.2596C92.9657 88.1109 91.6389 87.2762 90.2119 86.7081C88.0977 85.8688 86.1718 85.6414 84.2841 86.0041C84.002 86.0589 83.7266 86.1278 83.4589 86.207C85.2248 85.1526 86.9155 83.9133 88.5122 82.5014C88.5428 82.4736 88.5932 82.4491 88.6324 82.4421C88.8937 82.3988 89.2406 82.3454 89.5956 82.3199C89.6285 82.3199 89.6702 82.3357 89.6749 82.3374C90.637 83.413 91.8765 83.9358 93.4643 83.9358C93.5453 83.9358 93.6265 83.9341 93.7075 83.9313C95.4338 83.8757 97.1694 83.4019 98.8668 82.5222C100.1 81.8793 101.386 81.1309 102.429 80.0147C102.66 79.7665 102.867 79.4858 103.049 79.2381L103.067 79.214C103.148 79.1047 103.229 78.9947 103.313 78.886C103.358 78.8274 103.378 78.7517 103.366 78.6756C103.353 78.6022 103.31 78.5369 103.238 78.4897C103.219 78.4797 102.778 78.2431 102.375 78.0872C99.6753 77.0452 96.9501 76.9385 94.3504 77.7754C93.4994 78.0486 92.6984 78.4588 91.9185 79.0258C93.3608 77.351 94.6963 75.5149 95.9088 73.5394C95.9218 73.5185 95.9563 73.4621 95.9675 73.4518C96.0735 73.3843 96.182 73.3204 96.2902 73.2573C96.4841 73.1436 96.685 73.026 96.8736 72.886C97.0328 72.7673 97.0776 72.7642 97.2384 72.8676C97.466 73.0152 97.7306 73.0919 97.9612 73.1522C99.3106 73.4974 100.671 73.3254 102.175 72.6197C103.55 71.976 104.607 70.9585 105.544 69.9552C106.908 68.4916 107.799 67.1711 108.349 65.7992C108.464 65.5113 108.547 65.2136 108.632 64.9023C108.668 64.7717 108.704 64.6411 108.742 64.5127C108.784 64.3748 108.711 64.2289 108.575 64.1808L108.462 64.1722C107.905 64.1722 102.944 64.2536 100.042 67.0663C99.411 67.6783 98.8451 68.3287 98.3285 69.0408C99.4764 66.6122 100.45 64.0527 101.234 61.3959L101.246 61.357C101.255 61.3245 101.27 61.2753 101.279 61.262L102.038 60.2208C102.066 60.1791 102.07 60.1791 102.114 60.1791C102.134 60.1791 102.156 60.1805 102.18 60.1819L102.343 60.1916C102.907 60.2267 103.24 60.2216 103.513 60.1788C104.594 60.0085 105.569 59.4648 106.495 58.5165C108.66 56.2986 110.15 53.5315 111.05 50.0579C111.147 49.6858 111.174 49.31 111.203 48.9114C111.216 48.7308 111.23 48.5446 111.25 48.3522C111.259 48.26 111.223 48.1718 111.153 48.1143Z" fill="#1C1D28"/>
<path d="M37.7019 88.4994C35.9016 88.1022 34.1109 87.5233 32.2268 86.7298C32.2043 86.7192 32.1484 86.6561 32.1308 86.5994C31.943 85.9599 31.8802 85.3157 31.938 84.6297C32.3069 80.2503 29.6964 75.6358 25.7315 73.6575C25.6472 73.6147 25.5592 73.5777 25.458 73.5363L25.3639 73.4974C25.2746 73.4593 25.1658 73.4751 25.0938 73.5329C25.0159 73.593 24.9772 73.6908 24.9931 73.7889L25.1016 74.4604C25.1978 75.0546 25.2922 75.6361 25.3826 76.2181L25.4054 76.3704C25.66 78.0243 25.9232 79.7347 26.4359 81.3779C26.8986 82.8604 27.6125 84.0302 28.6055 84.9265C26.5077 83.6908 24.5529 82.2058 22.7776 80.4979C22.7403 80.4621 22.6961 80.3671 22.6897 80.2887L22.6421 79.1166C22.6418 79.0749 22.6413 78.9643 22.6649 78.9096C23.5394 76.8745 23.7633 74.5838 23.3502 71.907C22.9518 69.3253 21.8483 66.9512 20.0702 64.8503C19.8621 64.6043 19.6785 64.4798 19.5243 64.4798C19.4868 64.4798 19.4528 64.4873 19.4261 64.5012C19.3443 64.5418 19.289 64.6205 19.2781 64.7113L19.2305 65.1202C19.1938 65.4237 19.1585 65.7216 19.1268 66.0201C19.072 66.546 19.0119 67.071 18.9515 67.5963L18.9429 67.6722C18.7926 68.9837 18.6368 70.34 18.5545 71.698C18.4588 73.2822 18.4871 75.1324 19.4245 76.844C19.4295 76.8526 19.4339 76.8617 19.4389 76.8704C18.136 75.2428 16.9466 73.4912 15.8855 71.6352C15.7917 71.4701 15.7837 71.3253 15.8012 71.1152C15.8766 70.2266 16.29 69.5046 16.7254 68.857C17.5665 67.603 18.0756 66.1207 18.3764 64.0507C18.7968 61.1557 18.3722 58.2516 17.1152 55.4184C17.0807 55.3403 17.0404 55.2649 16.9973 55.1841L16.899 54.999C16.852 54.9086 16.7516 54.8491 16.6456 54.8539C16.5399 54.8594 16.4467 54.9264 16.4083 55.0237C16.1033 55.7919 15.8084 56.532 15.5155 57.2666L15.3282 57.736C14.7033 59.3039 14.0025 61.1343 13.5952 63.0229C13.308 64.3556 13.2905 65.6419 13.5423 66.8664C12.5652 64.5432 11.762 62.0882 11.1468 59.5426C11.1399 59.5143 11.1376 59.4409 11.1986 59.2716C11.4863 58.4851 12.0101 57.7719 12.674 57.2635C14.1271 56.1502 14.9515 54.6026 15.5661 53.2357C16.8245 50.4403 17.1659 47.4706 16.6094 44.1562C16.6036 44.1215 16.593 44.087 16.5805 44.0495L16.5705 44.0195C16.5463 43.9453 16.4912 43.8852 16.4183 43.8538C16.3471 43.8241 16.2575 43.8296 16.2021 43.8569C16.1465 43.8772 16.0622 43.908 16.0073 43.9883C15.6924 44.4086 15.3727 44.8327 15.0528 45.2566L14.9991 45.328C14.1922 46.3983 13.3578 47.5045 12.556 48.6065C11.627 49.8797 10.971 51.1173 10.55 52.3903C10.3469 53.0051 10.2142 53.5968 10.1516 54.1715C9.88426 52.1062 9.73262 49.9975 9.69952 47.8713C9.69173 47.3638 9.75627 46.9606 10.1032 46.5189C10.4705 46.0481 10.8135 45.7852 11.2865 45.6118C13.2299 44.9025 14.4766 43.4036 15.3455 42.177C16.7491 40.1929 17.5723 37.8841 17.8623 35.1186C17.8931 34.834 17.9107 34.5461 17.9287 34.2415L17.9332 34.1723C17.9418 34.0241 17.951 33.8699 17.9627 33.7065C17.9699 33.5981 17.9118 33.4964 17.8147 33.4472C17.7206 33.3999 17.6002 33.4138 17.5184 33.483L17.2877 33.6803C17.2009 33.7543 17.1266 33.8176 17.0496 33.8793C16.6793 34.1765 16.3076 34.4705 15.935 34.7654L15.8961 34.796C15.0784 35.443 14.2326 36.112 13.4249 36.8029C11.8577 38.1381 10.8486 39.4672 10.249 40.9861C10.15 41.2365 10.0632 41.4842 9.98859 41.7293C10.2351 39.3157 10.6355 36.9388 11.1852 34.6328C11.252 34.3507 11.2893 34.2679 11.4264 34.2229C11.5127 34.1937 11.5931 34.1375 11.6518 34.0681C12.0505 33.6153 12.5755 33.5436 13.0841 33.5333C14.7812 33.4936 16.1273 32.6478 17.2198 31.8257C19.8988 29.8101 21.7434 24.6961 21.7434 24.5227C21.7434 24.4324 21.6984 24.3482 21.6219 24.2973C21.5465 24.2476 21.4446 24.2406 21.3678 24.2748C20.8097 24.5113 20.2516 24.7417 19.6737 24.9805C18.4023 25.5072 17.0877 26.0514 15.8251 26.6464C14.5545 27.247 13.5504 28.0502 12.8326 29.0386C13.5167 27.0967 14.3099 25.1928 15.198 23.3632C15.3001 23.1658 15.7798 22.9563 16.4675 22.9563C16.6912 22.9563 16.908 22.9802 17.0952 23.0252C18.7111 23.4121 20.3134 23.1775 22.0868 22.2923C23.901 21.3862 25.4062 19.9049 26.6883 17.7623C26.7127 17.7209 26.7609 17.5944 26.7868 17.5235C26.8193 17.4368 26.8062 17.3412 26.7523 17.2687C26.7022 17.1997 26.622 17.1586 26.5199 17.1586C26.5191 17.1586 26.5186 17.1586 26.5177 17.1586L25.8773 17.1989C25.4847 17.2236 25.1035 17.2478 24.7224 17.2673L24.3153 17.2878C23.1 17.349 21.843 17.4118 20.6133 17.7045C19.2108 18.0413 18.1811 18.5585 17.3915 19.3256C18.326 17.7717 19.3268 16.2931 20.381 14.9082C20.4094 14.8715 20.5454 14.8153 20.657 14.7967C20.7126 14.7837 20.9152 14.7411 21.1845 14.7411C21.5417 14.7411 21.8544 14.8137 22.1196 14.9593C23.8042 15.7823 25.6961 15.8434 27.7502 15.1386C29.4351 14.5635 30.8621 13.4954 32.113 11.8742C32.1536 11.822 32.1904 11.765 32.2238 11.705C32.2619 11.6358 32.2644 11.5596 32.231 11.4901C32.1342 11.2873 31.7152 11.1919 31.5388 11.1602C31.1059 11.0846 30.6154 10.9985 30.129 10.9326C29.9062 10.9015 29.683 10.869 29.4594 10.8359L29.4307 10.8314C28.6728 10.7197 27.8893 10.6041 27.1 10.5643C25.6577 10.4907 24.3771 10.7847 23.329 11.4357C24.0338 10.6864 24.7538 9.9754 25.485 9.30753C25.7162 9.09686 25.9777 8.88452 26.3341 8.61798C26.3616 8.59685 26.4317 8.57212 26.5177 8.56712C29.0437 8.46845 31.1456 7.35449 32.943 5.16215C33.922 3.96871 34.6727 2.46342 35.2383 0.560132L35.2578 0.494817C35.3181 0.294705 35.3515 0.184643 35.2127 0.055682C35.1056 -0.0438182 34.9169 -0.0143564 34.4267 0.179641C33.9816 0.35057 33.5336 0.516497 33.0737 0.68687C32.1497 1.02901 31.1941 1.38281 30.2718 1.78248C28.7304 2.45175 27.4996 3.4662 26.614 4.79723C25.9396 5.81002 25.673 6.82753 25.7985 7.90258C25.7977 7.91453 25.7871 7.94315 25.7854 7.94649C24.1765 9.33421 22.6385 10.8965 21.0593 12.7559C22.1124 11.1475 22.7987 9.29558 23.1432 7.14882C23.4904 4.98455 23.5124 3.0582 23.2108 1.25997C23.1916 1.1474 23.1657 1.03484 23.1326 0.89393L23.0834 0.676863C23.0611 0.583756 22.991 0.508436 22.8989 0.479531C22.8068 0.452293 22.7036 0.476473 22.6349 0.541788C22.5247 0.645457 22.4167 0.74329 22.3113 0.838343L22.237 0.905325C21.9671 1.14824 21.7123 1.37753 21.4816 1.63685C19.2406 4.16243 17.9335 6.83003 17.4858 9.79225C17.2819 11.1311 17.3665 12.2709 17.7446 13.2759C17.8698 13.6088 18.0651 13.9062 18.2596 14.2014C18.3486 14.3362 18.4376 14.4715 18.5191 14.6105C18.5792 14.7103 18.5842 14.7361 18.584 14.7314C18.547 15.1275 18.4938 15.5688 18.422 16.0986C18.419 16.1052 18.409 16.1208 18.377 16.163L18.3511 16.1989C17.1255 17.9007 15.9948 19.6947 14.9774 21.5516C15.3775 20.1647 15.696 18.4093 15.6735 16.3695C15.6462 13.9229 15.0823 11.7408 13.9488 9.69775C13.904 9.61826 13.8228 9.56657 13.709 9.55878C13.6263 9.55878 13.5468 9.59964 13.4947 9.6694C13.4608 9.71665 13.4263 9.76112 13.3935 9.80336C13.3203 9.89786 13.2518 9.98736 13.1906 10.083C12.2881 11.4968 11.804 13.0557 11.4826 14.2561C10.8953 16.4576 10.6254 18.2959 10.6332 20.0416C10.6377 21.5255 10.9084 22.6661 11.4854 23.6314C11.6649 23.9318 11.8908 24.1948 12.1178 24.4593C12.2383 24.5997 12.3621 24.744 12.4742 24.8918C12.5527 24.9946 12.5905 25.0994 12.5927 25.1578C12.6075 25.5097 12.5997 25.8674 12.5922 26.2131L12.5869 26.4521C12.5861 26.4933 12.5766 26.5405 12.5624 26.5766C11.8379 28.3301 11.2011 30.1525 10.658 32.0241C10.7378 31.3868 10.7829 30.7698 10.7943 30.1678C10.86 26.7509 9.8108 23.6995 7.67518 21.0972L7.23002 20.5555C7.17855 20.4918 7.10232 20.4557 7.02108 20.4557L6.97656 20.4596C6.88141 20.4755 6.80128 20.5413 6.76818 20.6311C6.72756 20.7392 6.68777 20.8412 6.6491 20.9399C6.57453 21.1305 6.50414 21.3112 6.4446 21.4949C5.98637 22.9288 5.76157 24.4952 5.71594 26.573L5.71511 26.6136C5.68089 28.1253 5.63387 30.1962 6.25541 32.1778C6.86722 34.1287 7.94617 35.1145 8.15539 35.2915L8.17765 35.3115C8.74716 35.8193 9.11803 36.2837 9.19482 36.5853C9.22571 36.707 9.25714 36.8291 9.29387 36.9497C9.45635 37.4864 9.3548 37.9978 9.24518 38.55C9.19065 38.8288 9.13389 39.1167 9.11414 39.4122C9.03568 40.5945 8.93941 41.7968 8.84621 42.9594L8.83786 43.067C8.81394 43.3635 8.79001 43.6601 8.76636 43.9567C8.52876 41.2963 7.6468 38.878 6.12938 36.7393C5.20012 35.4308 4.09224 34.3113 2.8358 33.411C2.78154 33.3721 2.72451 33.3374 2.64828 33.2921C2.61127 33.2707 2.56843 33.2451 2.5164 33.2126C2.43794 33.1656 2.33722 33.1614 2.25626 33.2009C2.17335 33.2412 2.11632 33.3232 2.10686 33.416C2.08988 33.5842 2.07013 33.747 2.04926 33.916C2.00725 34.2621 1.96747 34.5889 1.9658 34.9247C1.94716 38.4049 2.68417 41.6662 4.15707 44.6167C4.56745 45.44 5.1097 46.1521 5.76936 46.734C6.42346 47.308 7.12931 47.6465 7.92585 47.7682C7.94338 47.7713 7.98512 47.7966 7.99152 47.8016C8.03464 47.888 8.07943 47.9747 8.12423 48.0617C8.28337 48.3688 8.4478 48.6865 8.5296 49.005C8.59776 49.2744 8.59776 49.5687 8.59776 49.8805C8.59776 49.9948 8.59776 50.1098 8.60138 50.2227C8.67789 52.9186 8.77833 53.8575 9.21012 56.2663C8.94665 55.5501 8.61584 54.8319 8.18877 54.141C6.45935 51.3447 4.26224 49.4467 1.47196 48.3391C1.29445 48.2677 1.11639 48.2163 0.909948 48.1562L0.868772 48.144C0.785027 48.1195 0.696274 48.0934 0.601401 48.0645C0.515709 48.0364 0.418053 48.0556 0.34822 48.1134C0.278664 48.171 0.242217 48.2591 0.251399 48.3508C0.271987 48.542 0.286176 48.7279 0.299253 48.9094C0.327909 49.3074 0.354897 49.6832 0.45144 50.0551C1.35176 53.529 2.84192 56.2958 5.00676 58.514C5.9324 59.4623 6.90784 60.0059 7.98873 60.1763C8.26139 60.2188 8.5947 60.2241 9.15893 60.1891L9.32141 60.1794C9.34618 60.178 9.36788 60.1766 9.38763 60.1766C9.43215 60.1766 9.43576 60.1766 9.46665 60.2222L10.2226 61.2591C10.2323 61.2727 10.2465 61.3219 10.2562 61.3558L10.2674 61.3931C11.052 64.0501 12.0254 66.6093 13.1734 69.0382C12.6567 68.3259 12.0906 67.6755 11.4595 67.0638C8.5577 64.2511 3.59645 64.1696 3.04029 64.1696L2.97101 64.1702L2.92733 64.1783C2.791 64.2266 2.71727 64.3723 2.75929 64.5093C2.79796 64.6385 2.83413 64.7691 2.87558 64.9226C2.95487 65.2108 3.03723 65.5084 3.15269 65.7964C3.70246 67.1688 4.5936 68.489 5.95772 69.9526C6.89504 70.9559 7.95173 71.9735 9.32587 72.6169C10.8308 73.3228 12.1896 73.4951 13.5409 73.1494C13.7707 73.0891 14.035 73.0126 14.2623 72.8653C14.4243 72.7617 14.4685 72.765 14.6277 72.8834C14.8163 73.0235 15.0169 73.1411 15.2116 73.255C15.3193 73.3181 15.4278 73.3817 15.5291 73.4457C15.5452 73.4593 15.5797 73.5157 15.5925 73.5366C16.805 75.5121 18.1408 77.3481 19.583 79.023C18.8029 78.456 18.0019 78.0457 17.1511 77.7725C14.5511 76.9357 11.826 77.0421 9.12694 78.0847C8.72407 78.2406 8.28253 78.4768 8.25304 78.4935C8.19128 78.5341 8.14871 78.5997 8.13536 78.675C8.12367 78.7489 8.14287 78.8245 8.18794 78.8823C8.27224 78.9918 8.35376 79.1019 8.43444 79.2111L8.45225 79.235C8.63448 79.4829 8.84093 79.7634 9.0724 80.0118C10.1149 81.1283 11.4006 81.8768 12.6348 82.5194C14.3319 83.399 16.0674 83.8729 17.7935 83.9285C17.8748 83.9313 17.956 83.9329 18.037 83.9329C19.6248 83.9329 20.8643 83.4101 21.8197 82.3409C21.8314 82.3326 21.8728 82.3167 21.8956 82.3165C22.2607 82.3426 22.6076 82.3957 22.8669 82.4388C22.9078 82.446 22.9582 82.4704 22.9896 82.4988C24.5857 83.9104 26.2762 85.1494 28.0421 86.2039C27.7744 86.1247 27.4987 86.0558 27.2166 86.0005C25.3294 85.6381 23.4036 85.8654 21.2888 86.7048C19.8621 87.2729 18.5353 88.1075 17.2324 89.2562C17.125 89.3504 17.1099 89.5124 17.1984 89.6247C17.6594 90.2109 18.2593 90.5391 18.7854 90.7826C20.0685 91.3782 21.517 91.7595 23.215 91.9491C23.22 91.9494 23.7656 91.9966 24.5307 91.9966C25.0829 91.9966 25.5968 91.9719 26.0573 91.9232C26.4974 91.8771 26.9364 91.8018 27.3624 91.6995C29.3188 91.2237 30.6446 90.2454 31.4041 88.7265C31.4177 88.7134 31.4762 88.6795 31.5502 88.6614C31.9032 88.5739 32.221 88.5122 32.5231 88.4719C32.5943 88.4605 32.6831 88.4796 32.7949 88.5247C34.146 89.0447 35.5758 89.478 37.0417 89.812C37.0623 89.8171 37.0837 89.8196 37.1051 89.8196C37.2036 89.8196 37.2943 89.7654 37.3422 89.677C37.4821 89.4168 37.6527 89.1673 37.8488 88.9352C37.9103 88.8621 37.9287 88.7648 37.8984 88.6748C37.8694 88.5875 37.796 88.5213 37.7019 88.4994Z" fill="#1C1D28"/>
<path fill-rule="evenodd" clip-rule="evenodd" d="M43.6902 28.4705C43.7033 27.9485 43.7236 27.4477 43.7501 26.972H67.7501C67.7766 27.4477 67.7968 27.9485 67.81 28.4705H77.2504V29.969C77.2504 32.9101 76.537 37.4071 74.3751 41.4732C72.2235 45.5198 68.5868 49.2124 62.7809 50.3732C61.4488 52.0469 59.7938 53.2488 57.7502 53.7219V59.9379C57.7502 63.1346 60.0835 64.5998 61.2502 64.9327H50.2502C53.0502 64.9327 53.7502 61.6029 53.7502 59.9379V53.7219C51.5902 53.2219 49.8643 51.9078 48.4949 50.0828C43.3959 48.677 40.1214 45.2274 38.1253 41.4732C35.9634 37.4071 35.25 32.9101 35.25 29.969V28.4705H43.6902ZM43.695 31.4674H38.3147C38.518 33.9376 39.2245 37.1518 40.7747 40.0674C42.0168 42.4034 43.7771 44.5137 46.2428 45.9286C44.5044 41.5382 43.8209 36.0701 43.695 31.4674ZM64.9956 46.5626C68.136 45.1953 70.2813 42.7839 71.7256 40.0674C73.2758 37.1518 73.9824 33.9376 74.1857 31.4674H67.8052C67.6732 36.2944 66.9278 42.0733 64.9956 46.5626ZM47.7502 65.9317V71.426H63.7502V65.9317H47.7502Z" fill="#70C174"/>
</svg>
